<svg xmlns="http://www.w3.org/2000/svg" enable-background="new 0 0 24 24" height="24"
    viewBox="0 0 24 24" width="24" focusable="false" aria-hidden="true"
    style="pointer-events: none; display: inherit; width: 100%; height: 100%;">
    <symbol id="home">
        <path clip-rule="evenodd"
            d="M22.146 11.146a.5.5 0 01-.353.854H20v7.5a1.5 1.5 0 01-1.5 1.5h-5v-7h-3v7h-5A1.5 1.5 0 014 19.5V12H2.207a.5.5 0 01-.353-.854L12 1l10.146 10.146ZM18.5 9.621l-6.5-6.5-6.5 6.5V19.5H9V13a.5.5 0 01.5-.5h5a.5.5 0 01.5.5v6.5h3.5V9.621Z"
            fill-rule="evenodd"></path>
    </symbol>
    <symbol id="shorts">
        <path clip-rule="evenodd"
            d="m7.61 15.719.392-.22v-2.24l-.534-.228-.942-.404c-.869-.372-1.4-1.15-1.446-1.974-.047-.823.39-1.642 1.203-2.097h.001L15.13 3.59c1.231-.689 2.785-.27 3.466.833.652 1.058.313 2.452-.879 3.118l-1.327.743-.388.217v2.243l.53.227.942.404c.869.372 1.4 1.15 1.446 1.974.047.823-.39 1.642-1.203 2.097l-.002.001-8.845 4.964-.001.001c-1.231.688-2.784.269-3.465-.834-.652-1.058-.313-2.451.879-3.118l1.327-.742Zm1.993 6.002c-1.905 1.066-4.356.46-5.475-1.355-1.057-1.713-.548-3.89 1.117-5.025a4.14 4.14 0 01.305-.189l1.327-.742-.942-.404a4.055 4.055 0 01-.709-.391c-.963-.666-1.578-1.718-1.644-2.877-.08-1.422.679-2.77 1.968-3.49l8.847-4.966c1.905-1.066 4.356-.46 5.475 1.355 1.057 1.713.548 3.89-1.117 5.025a4.074 4.074 0 01-.305.19l-1.327.742.942.403c.253.109.49.24.709.392.963.666 1.578 1.717 1.644 2.876.08 1.423-.679 2.77-1.968 3.491l-8.847 4.965ZM10 14.567a.25.25 0 00.374.217l4.45-2.567a.25.25 0 000-.433l-4.45-2.567a.25.25 0 00-.374.216v5.134Z"
            fill-rule="evenodd"></path>
    </symbol>
    <symbol id="subscriptions">
        <path clip-rule="evenodd"
            d="M4 4.5A1.5 1.5 0 015.5 3h13A1.5 1.5 0 0120 4.5H4Zm16.5 3h-17v11h17v-11ZM3.5 6A1.5 1.5 0 002 7.5v11A1.5 1.5 0 003.5 20h17a1.5 1.5 0 001.5-1.5v-11A1.5 1.5 0 0020.5 6h-17Zm7.257 4.454a.5.5 0 00-.757.43v4.233a.5.5 0 00.757.429L15 13l-4.243-2.546Z"
            fill-rule="evenodd"></path>
    </symbol>
    <symbol id="youtube-music-light">
        <path clip-rule="evenodd"
            d="M12 20.5c4.694 0 8.5-3.806 8.5-8.5S16.694 3.5 12 3.5 3.5 7.306 3.5 12s3.806 8.5 8.5 8.5Zm0 1.5c5.523 0 10-4.477 10-10S17.523 2 12 2 2 6.477 2 12s4.477 10 10 10Zm0-5c2.761 0 5-2.239 5-5s-2.239-5-5-5-5 2.239-5 5 2.239 5 5 5Zm0 1c3.314 0 6-2.686 6-6s-2.686-6-6-6-6 2.686-6 6 2.686 6 6 6Zm-1.243-8.546c-.333-.2-.757.04-.757.43v4.233c0 .389.424.629.757.429L15 12l-4.243-2.546Z"
            fill-rule="evenodd"></path>
    </symbol>
    <symbol id="youtube-music">
        <g>
            <circle id="XMLID_4814__yt68" fill="#FF0033" cx="12" cy="12" r="11"></circle>
            <path fill="#FFFFFF"
                d="M12,6.25c3.17,0,5.75,2.58,5.75,5.75s-2.58,5.75-5.75,5.75S6.25,15.17,6.25,12S8.83,6.25,12,6.25 M12,5.25   c-3.73,0-6.75,3.02-6.75,6.75s3.02,6.75,6.75,6.75s6.75-3.02,6.75-6.75S15.73,5.25,12,5.25L12,5.25z"></path>
            <polygon fill="#FFFFFF" points="10,15 15,12 10,9  "></polygon>
        </g>
    </symbol>
    <symbol id="you">
        <path clip-rule="evenodd"
            d="M12 20.5c1.894 0 3.643-.62 5.055-1.666a5.5 5.5 0 00-10.064-.105.755.755 0 01-.054.099A8.462 8.462 0 0012 20.5Zm4.079-5.189a7 7 0 012.142 2.48 8.5 8.5 0 10-12.443 0 7 7 0 0110.3-2.48ZM12 22c5.523 0 10-4.477 10-10S17.523 2 12 2 2 6.477 2 12s4.477 10 10 10Zm2-12.5a2 2 0 11-4 0 2 2 0 014 0Zm1.5 0a3.5 3.5 0 11-7 0 3.5 3.5 0 017 0Z"
            fill-rule="evenodd"></path>
    </symbol>
    <symbol id="downloads">
        <path clip-rule="evenodd"
            d="M17.53 11.53c.293-.293.293-.767 0-1.06-.293-.293-.767-.293-1.06 0l-3.72 3.72V3c0-.414-.336-.75-.75-.75s-.75.336-.75.75v11.19l-3.72-3.72c-.293-.293-.767-.293-1.06 0-.293.293-.293.767 0 1.06l5 5 .53.53.53-.53 5-5Zm1.72 8.97c.414 0 .75-.336.75-.75s-.336-.75-.75-.75H4.75c-.414 0-.75.336-.75.75s.336.75.75.75h14.5Z"
            fill-rule="evenodd"></path>
    </symbol>
    <symbol id="create">
        <path
            d="M14 13h-3v3H9v-3H6v-2h3V8h2v3h3v2zm3-7H3v12h14v-6.39l4 1.83V8.56l-4 1.83V6m1-1v3.83L22 7v8l-4-1.83V19H2V5h16z"></path>
    </symbol>
    <symbol id="notifications">
        <path clip-rule="evenodd"
            d="m13.497 4.898.053.8.694.4C15.596 6.878 16.5 8.334 16.5 10v2.892c0 .997.27 1.975.784 2.83L18.35 17.5H5.649l1.067-1.778c.513-.855.784-1.833.784-2.83V10c0-1.666.904-3.122 2.256-3.902l.694-.4.053-.8c.052-.78.703-1.398 1.497-1.398.794 0 1.445.618 1.497 1.398ZM6 10c0-2.224 1.21-4.165 3.007-5.201C9.11 3.236 10.41 2 12 2c1.59 0 2.89 1.236 2.993 2.799C16.79 5.835 18 7.776 18 10v2.892c0 .725.197 1.436.57 2.058l1.521 2.535c.4.667-.08 1.515-.857 1.515H15c0 .796-.316 1.559-.879 2.121-.562.563-1.325.879-2.121.879s-1.559-.316-2.121-.879C9.316 20.56 9 19.796 9 19H4.766c-.777 0-1.257-.848-.857-1.515L5.43 14.95c.373-.622.57-1.333.57-2.058V10Zm4.5 9c0 .398.158.78.44 1.06.28.282.662.44 1.06.44s.78-.158 1.06-.44c.282-.28.44-.662.44-1.06h-3Z"
            fill-rule="evenodd"></path>
    </symbol>
    <symbol id="search">
        <path clip-rule="evenodd"
            d="M16.296 16.996a8 8 0 11.707-.708l3.909 3.91-.707.707-3.909-3.909zM18 11a7 7 0 00-14 0 7 7 0 1014 0z"
            fill-rule="evenodd"></path>
    </symbol>
    <symbol id="more-options">
        <path
            d="M12 16.5c.83 0 1.5.67 1.5 1.5s-.67 1.5-1.5 1.5-1.5-.67-1.5-1.5.67-1.5 1.5-1.5zM10.5 12c0 .83.67 1.5 1.5 1.5s1.5-.67 1.5-1.5-.67-1.5-1.5-1.5-1.5.67-1.5 1.5zm0-6c0 .83.67 1.5 1.5 1.5s1.5-.67 1.5-1.5-.67-1.5-1.5-1.5-1.5.67-1.5 1.5z"></path>
    </symbol>
    <symbol id="history">
        <path clip-rule="evenodd"
            d="M14.203 4.83c-1.74-.534-3.614-.418-5.274.327-1.354.608-2.49 1.6-3.273 2.843H8.25c.414 0 .75.336.75.75s-.336.75-.75.75H3V4.25c0-.414.336-.75.75-.75s.75.336.75.75v2.775c.935-1.41 2.254-2.536 3.815-3.236 1.992-.894 4.241-1.033 6.328-.392 2.088.641 3.87 2.02 5.017 3.878 1.146 1.858 1.578 4.07 1.215 6.223-.364 2.153-1.498 4.1-3.19 5.48-1.693 1.379-3.83 2.095-6.012 2.016-2.182-.08-4.26-.949-5.849-2.447-1.588-1.499-2.578-3.523-2.784-5.697-.039-.412.264-.778.676-.817.412-.04.778.263.818.675.171 1.812.996 3.499 2.32 4.748 1.323 1.248 3.055 1.973 4.874 2.04 1.818.065 3.598-.532 5.01-1.681 1.41-1.15 2.355-2.773 2.657-4.567.303-1.794-.056-3.637-1.012-5.186-.955-1.548-2.44-2.697-4.18-3.231ZM12.75 7.5c0-.414-.336-.75-.75-.75s-.75.336-.75.75v4.886l.314.224 3.5 2.5c.337.241.806.163 1.046-.174.241-.337.163-.806-.174-1.046l-3.186-2.276V7.5Z"
            fill-rule="evenodd"></path>
    </symbol>
    <symbol id="playlists">
        <path clip-rule="evenodd"
            d="M3.75 5c-.414 0-.75.336-.75.75s.336.75.75.75h16.5c.414 0 .75-.336.75-.75S20.664 5 20.25 5H3.75Zm0 4c-.414 0-.75.336-.75.75s.336.75.75.75h16.5c.414 0 .75-.336.75-.75S20.664 9 20.25 9H3.75Zm0 4c-.414 0-.75.336-.75.75s.336.75.75.75h8.5c.414 0 .75-.336.75-.75s-.336-.75-.75-.75h-8.5Zm8.5 4c.414 0 .75.336.75.75s-.336.75-.75.75h-8.5c-.414 0-.75-.336-.75-.75s.336-.75.75-.75h8.5Zm3.498-3.572c-.333-.191-.748.05-.748.434v6.276c0 .384.415.625.748.434L22 17l-6.252-3.572Z"
            fill-rule="evenodd"></path>
    </symbol>
    <symbol id="your-videos">
        <path clip-rule="evenodd"
            d="M3.5 5.5h17v13h-17v-13ZM2 5.5C2 4.672 2.672 4 3.5 4h17c.828 0 1.5.672 1.5 1.5v13c0 .828-.672 1.5-1.5 1.5h-17c-.828 0-1.5-.672-1.5-1.5v-13Zm7.748 2.927c-.333-.19-.748.05-.748.435v6.276c0 .384.415.625.748.434L16 12 9.748 8.427Z"
            fill-rule="evenodd"></path>
    </symbol>
    <symbol id="watch-later">
        <path clip-rule="evenodd"
            d="M20.5 12c0 4.694-3.806 8.5-8.5 8.5S3.5 16.694 3.5 12 7.306 3.5 12 3.5s8.5 3.806 8.5 8.5Zm1.5 0c0 5.523-4.477 10-10 10S2 17.523 2 12 6.477 2 12 2s10 4.477 10 10Zm-9.25-5c0-.414-.336-.75-.75-.75s-.75.336-.75.75v5.375l.3.225 4 3c.331.248.802.181 1.05-.15.248-.331.181-.801-.15-1.05l-3.7-2.775V7Z"
            fill-rule="evenodd"></path>
    </symbol>
    <symbol id="liked-videos">
        <path clip-rule="evenodd"
            d="M14.813 5.018 14.41 6.5 14 8h5.192c.826 0 1.609.376 2.125 1.022.711.888.794 2.125.209 3.101L21 13l.165.413c.519 1.296.324 2.769-.514 3.885l-.151.202v.5c0 1.657-1.343 3-3 3H5c-1.105 0-2-.895-2-2v-8c0-1.105.895-2 2-2h2v.282c0-.834.26-1.647.745-2.325L12 1l1.1.472c1.376.59 2.107 2.103 1.713 3.546ZM7 10.5H5c-.276 0-.5.224-.5.5v8c0 .276.224.5.5.5h2v-9Zm10.5 9h-9V9.282c0-.521.163-1.03.466-1.453l3.553-4.975c.682.298 1.043 1.051.847 1.77l-.813 2.981c-.123.451-.029.934.255 1.305.284.372.725.59 1.192.59h5.192c.37 0 .722.169.954.459.32.399.357.954.094 1.393l-.526.876c-.241.402-.28.894-.107 1.33l.165.412c.324.81.203 1.73-.32 2.428l-.152.202c-.195.26-.3.575-.3.9v.5c0 .828-.672 1.5-1.5 1.5Z"
            fill-rule="evenodd"></path>
    </symbol>
    <symbol id="your-clips">
        <path clip-rule="evenodd"
            d="m8.042 9.456-.716.08c-.732.08-1.486-.16-2.043-.718-.977-.976-.977-2.559 0-3.535.976-.977 2.559-.977 3.535 0 .558.557.798 1.312.717 2.044l-.079.715.51.51 10.13 10.13c-.97.643-2.291.537-3.146-.318l-4.951-4.951-1.061 1.06 4.951 4.952c1.442 1.442 3.712 1.553 5.282.331.13-.1.255-.212.375-.331l.707-.707-1.06-1.061L15.534 12l5.657-5.657 1.06-1.06-.706-.708c-.12-.12-.245-.23-.376-.331-1.569-1.222-3.839-1.111-5.281.331L13.06 7.404l1.061 1.06 2.829-2.828c.855-.855 2.175-.961 3.146-.318l-4.56 4.56 1.06 1.061L15.536 12l-4.51-4.51c.128-1.164-.254-2.375-1.147-3.268-1.562-1.562-4.095-1.562-5.657 0-1.562 1.562-1.562 4.095 0 5.657.893.893 2.104 1.276 3.269 1.147l2.033 2.033 1.06-1.06-2.033-2.033-.509-.51Zm-.285-3.113c-.39-.39-1.023-.39-1.414 0-.39.39-.39 1.024 0 1.415.39.39 1.024.39 1.414 0 .39-.391.39-1.024 0-1.415Zm-.43 8.122.715.079.51-.51.973-.973L8.465 12l-.975.974c-1.165-.128-2.375.254-3.268 1.147-1.562 1.562-1.562 4.095 0 5.657 1.562 1.562 4.094 1.562 5.657 0 .893-.893 1.275-2.104 1.147-3.269l.974-.973-1.06-1.061-.975.974-.509.509.079.716c.08.732-.16 1.486-.717 2.044-.976.976-2.56.976-3.536 0-.976-.977-.976-2.56 0-3.536.558-.558 1.312-.798 2.044-.717Zm-.984 3.192c.39.39 1.024.39 1.414 0 .39-.39.39-1.024 0-1.414-.39-.39-1.023-.39-1.414 0-.39.39-.39 1.023 0 1.414Z"
            fill-rule="evenodd"></path>
    </symbol>
    <symbol id="chevron-right">
        <path d="M4.97 12.65 9.62 8 4.97 3.35l.71-.71L11.03 8l-5.35 5.35-.71-.7z"></path>
    </symbol>
    <symbol id="arrow-left">
        <path d="M14.96 18.96 8 12l6.96-6.96.71.71L9.41 12l6.25 6.25-.7.71z"></path>
    </symbol>
    <symbol id="arrow-right">
        <path d="m9.4 18.4-.7-.7 5.6-5.6-5.7-5.7.7-.7 6.4 6.4-6.3 6.3z"></path>
    </symbol>
    <symbol id="sign-in">
        <path
            d="M12 2C6.48 2 2 6.48 2 12s4.48 10 10 10 10-4.48 10-10S17.52 2 12 2zm0 1c4.96 0 9 4.04 9 9 0 1.42-.34 2.76-.93 3.96-1.53-1.72-3.98-2.89-7.38-3.03A3.996 3.996 0 0016 9c0-2.21-1.79-4-4-4S8 6.79 8 9c0 1.97 1.43 3.6 3.31 3.93-3.4.14-5.85 1.31-7.38 3.03C3.34 14.76 3 13.42 3 12c0-4.96 4.04-9 9-9zM9 9c0-1.65 1.35-3 3-3s3 1.35 3 3-1.35 3-3 3-3-1.35-3-3zm3 12c-3.16 0-5.94-1.64-7.55-4.12C6.01 14.93 8.61 13.9 12 13.9c3.39 0 5.99 1.03 7.55 2.98C17.94 19.36 15.16 21 12 21z"></path>
    </symbol>
    <symbol id="google-account">
        <path
            d="M12 13.9v-3.72h9.36c.14.63.25 1.22.25 2.05 0 5.71-3.83 9.77-9.6 9.77C6.48 22 2 17.52 2 12S6.48 2 12 2c2.7 0 4.96.99 6.69 2.61l-2.84 2.76c-.72-.68-1.97-1.49-3.85-1.49-3.31 0-6.01 2.75-6.01 6.12s2.7 6.12 6.01 6.12c3.83 0 5.24-2.65 5.5-4.22H12z"></path>
    </symbol>
    <symbol id="switch-account">
        <path
            d="M4 20h14v1H3V6h1v14zM6 3v15h15V3H6zm2.02 14c.36-2.13 1.93-4.1 5.48-4.1s5.12 1.97 5.48 4.1H8.02zM11 8.5a2.5 2.5 0 015 0 2.5 2.5 0 01-5 0zm3.21 3.43A3.507 3.507 0 0017 8.5C17 6.57 15.43 5 13.5 5S10 6.57 10 8.5c0 1.69 1.2 3.1 2.79 3.43-3.48.26-5.4 2.42-5.78 5.07H7V4h13v13h-.01c-.38-2.65-2.31-4.81-5.78-5.07z"></path>
    </symbol>
    <symbol id="sign-out">
        <path
            d="M20 3v18H8v-1h11V4H8V3h12zm-8.9 12.1.7.7 4.4-4.4L11.8 7l-.7.7 3.1 3.1H3v1h11.3l-3.2 3.3z"></path>
    </symbol>
    <symbol id="youtube-studio">
        <g>
            <path fill="#FF0033"
                d="M11.13,1.21c0.48-0.28,1.26-0.28,1.74,0l8.01,4.64c0.48,0.28,0.87,0.97,0.87,1.53v9.24   c0,0.56-0.39,1.25-0.87,1.53l-8.01,4.64c-0.48,0.28-1.26,0.28-1.74,0l-8.01-4.64c-0.48-0.28-0.87-0.97-0.87-1.53V7.38   c0-0.56,0.39-1.25,0.87-1.53L11.13,1.21z"></path>
            <polygon fill="#FFFFFF" points="10,15 15,12 10,9  "></polygon>
            <path fill="#FFFFFF"
                d="M12,6c0.11,0,0.19,0.03,0.21,0.04l4.89,2.82c0.05,0.03,0.14,0.2,0.14,0.37v5.67c0,0.17-0.09,0.34-0.14,0.37   l-4.9,2.83c-0.03,0.01-0.1,0.04-0.21,0.04c-0.11,0-0.19-0.03-0.21-0.04l-4.9-2.83c-0.05-0.03-0.15-0.2-0.15-0.37V9.24   c0-0.17,0.1-0.34,0.14-0.37l4.9-2.83C11.82,6.03,11.89,6,12,6 M12,5c-0.25,0-0.51,0.06-0.71,0.18L6.39,8   C5.99,8.23,5.75,8.77,5.75,9.24v5.67c0,0.47,0.24,1,0.64,1.24l4.9,2.83c0.2,0.12,0.46,0.18,0.71,0.18c0.25,0,0.51-0.06,0.71-0.18   l4.9-2.83c0.41-0.24,0.64-0.77,0.64-1.24V9.24c0-0.47-0.23-1-0.64-1.24l-4.9-2.82C12.51,5.06,12.26,5,12,5L12,5z"></path>
        </g>
    </symbol>
    <symbol id="youtube-kids">
        <g>
            <g>
                <path fill="#FF0033"
                    d="M22.64,13.2c-0.01-1.04-0.62-5.98-0.9-6.74c-0.19-0.5-0.58-1.4-1.31-1.95c-0.94-0.7-1.7-0.83-2.68-0.85    C17.06,3.64,6.12,5.03,4.79,5.51C3.8,5.88,3.03,6.35,2.42,6.95c-0.99,0.98-1.18,1.93-1.02,3.6c0.14,1.52,0.85,6.55,1.21,7.59    c0.39,1.15,1.11,2.03,2.3,2.16c3.62,0.39,4.48-1.6,12.9-1.58c2.55,0.01,3.82-1.11,4.35-2.08C22.77,15.49,22.65,13.99,22.64,13.2z"></path>
                <path fill="#212121"
                    d="M17.47,4.04C17.47,4.04,17.48,4.04,17.47,4.04c0.94,0.02,1.67,0.14,2.56,0.81    c0.7,0.53,1.08,1.39,1.25,1.86c0.28,0.73,0.85,5.44,0.86,6.43c0.01,0.76,0.12,2.19-0.47,3.28c-0.5,0.92-1.71,1.98-4.13,1.98    c-0.01,0-0.01,0-0.02,0c-0.04,0-0.07,0-0.11,0c-7.23,0-8.55,1.56-11.33,1.56c-0.27,0-0.56-0.02-0.87-0.05    c-1.13-0.12-1.82-0.96-2.19-2.06c-0.34-0.99-1.01-5.79-1.15-7.24c-0.15-1.6,0.03-2.51,0.98-3.44c0.58-0.57,1.32-1.02,2.27-1.37    C6.38,5.35,16.73,4.04,17.47,4.04 M17.47,3.2c-0.47,0-3.53,0.37-6.09,0.72C8.82,4.27,5.6,4.75,4.84,5.03    c-1.06,0.39-1.9,0.9-2.56,1.56C1.05,7.8,0.9,9.06,1.05,10.7c0.12,1.27,0.8,6.28,1.19,7.43c0.53,1.55,1.55,2.48,2.89,2.62    c0.33,0.04,0.64,0.05,0.96,0.05c1.17,0,2.1-0.25,3.18-0.54c1.69-0.45,3.8-1.02,8.15-1.02l0.11,0l0.02,0    c1.07,0,3.68-0.24,4.86-2.42c0.63-1.17,0.6-2.59,0.58-3.43c0-0.09,0-0.18-0.01-0.26c-0.01-1.01-0.59-5.85-0.92-6.72    c-0.38-1-0.89-1.75-1.53-2.23c-1.05-0.79-1.94-0.96-3.04-0.98l-0.01,0L17.47,3.2L17.47,3.2z"></path>
            </g>
            <g>
                <path fill="#FFFFFF"
                    d="M15.28,11.85c-0.03,0.02-0.05,0.03-0.08,0.05c-0.21,0.14-0.42,0.28-0.63,0.43    c-0.49,0.33-3.33,2.26-3.33,2.26c-0.24,0.18-0.7,0.47-0.87,0.38c-0.17-0.09-0.23-0.72-0.27-1.02l-0.01-0.07    c-0.05-0.36-0.46-3.83-0.51-4.21C9.56,9.56,9.5,9.17,9.62,9.08c0.13-0.1,0.47,0.01,0.58,0.05c0.66,0.21,3.93,1.35,4.95,1.86    c0.03,0.02,0.06,0.03,0.1,0.04c0.15,0.06,0.35,0.15,0.35,0.39C15.6,11.65,15.42,11.76,15.28,11.85z"></path>
                <path fill="#212121"
                    d="M10.04,9.59c1.14,0.38,3.77,1.32,5.01,1.87c-0.15,0.1-0.3,0.2-0.45,0.3c-0.58,0.39-3.94,2.68-3.94,2.68    l-0.02,0.01l-0.02,0.01c0,0,0,0,0,0c0-0.03-0.01-0.05-0.01-0.07l-0.02-0.13l-0.01-0.08c-0.04-0.31-0.31-2.58-0.48-3.94    C10.08,9.98,10.06,9.76,10.04,9.59 M9.4,8.56c-0.07,0-0.14,0.01-0.18,0.05c-0.15,0.11-0.07,0.58-0.05,0.7    c0.05,0.45,0.54,4.56,0.6,4.99l0.01,0.08c0.05,0.36,0.12,1.1,0.33,1.21c0.03,0.01,0.06,0.02,0.1,0.02c0.25,0,0.68-0.28,0.93-0.47    c0,0,3.36-2.29,3.94-2.68c0.25-0.17,0.5-0.34,0.75-0.51c0.03-0.02,0.06-0.04,0.1-0.06c0.17-0.1,0.38-0.23,0.38-0.5    c-0.01-0.29-0.24-0.39-0.41-0.46c-0.04-0.02-0.08-0.03-0.11-0.05c-1.21-0.61-5.09-1.96-5.87-2.21C9.8,8.63,9.58,8.56,9.4,8.56    L9.4,8.56z"></path>
            </g>
        </g>
    </symbol>
    <symbol id="youtube-premium-benefits">
        <rect x="2" y="2" width="20" height="20" rx="5" fill="white"></rect>
        <rect x="2" y="2" width="20" height="20" rx="5" fill="url(#paint0_linear_6125_21625_yt125)"></rect>
        <path
            d="M12.7593 13.0229H9.9834V11.5654H12.7593C13.2427 11.5654 13.6333 11.4873 13.9312 11.3311C14.229 11.1748 14.4463 10.96 14.583 10.6865C14.7246 10.4082 14.7954 10.0908 14.7954 9.73438C14.7954 9.39746 14.7246 9.08252 14.583 8.78955C14.4463 8.4917 14.229 8.25244 13.9312 8.07178C13.6333 7.89111 13.2427 7.80078 12.7593 7.80078H10.5474V17H8.70898V6.33594H12.7593C13.5845 6.33594 14.2852 6.48242 14.8613 6.77539C15.4424 7.06348 15.8843 7.46387 16.187 7.97656C16.4897 8.48438 16.6411 9.06543 16.6411 9.71973C16.6411 10.4082 16.4897 10.999 16.187 11.4922C15.8843 11.9854 15.4424 12.3638 14.8613 12.6274C14.2852 12.8911 13.5845 13.0229 12.7593 13.0229Z"
            fill="white"></path>
        <defs>
            <linearGradient id="paint0_linear_6125_21625_yt125" x1="2" y1="22" x2="22" y2="2"
                gradientUnits="userSpaceOnUse">
                <stop offset="0.3" stop-color="#E1002D"></stop>
                <stop offset="0.9" stop-color="#E01378"></stop>
            </linearGradient>
        </defs>
    </symbol>
    <symbol id="purchases-and-memberships">
        <path
            d="M12 3c4.96 0 9 4.04 9 9s-4.04 9-9 9-9-4.04-9-9 4.04-9 9-9m0-1C6.48 2 2 6.48 2 12s4.48 10 10 10 10-4.48 10-10S17.52 2 12 2zm4 7V7h-3V5h-2v2h-1c-1.1 0-2 .9-2 2v2c0 1.1.9 2 2 2h4v2H8v2h3v2h2v-2h1c1.1 0 2-.9 2-2v-2c0-1.1-.9-2-2-2h-4V9h6z"></path>
    </symbol>
    <symbol id="data-in-youtube">
        <path
            d="m12 3.06 7 3.21v4.84c0 1.3-.25 2.6-.75 3.86-.15.37-.33.76-.55 1.17-.15.27-.31.54-.48.81-1.32 2.01-3.17 3.42-5.23 3.98-2.06-.56-3.91-1.97-5.23-3.98-.17-.27-.33-.54-.48-.81-.22-.41-.4-.79-.55-1.17-.48-1.26-.73-2.56-.73-3.86V6.27l7-3.21m0-1.1L4 5.63v5.49c0 1.47.3 2.9.81 4.22.17.44.37.86.6 1.28.16.3.34.6.52.88 1.42 2.17 3.52 3.82 5.95 4.44l.12.02.12-.03c2.43-.61 4.53-2.26 5.95-4.43.19-.29.36-.58.52-.88.22-.41.43-.84.6-1.28.51-1.33.81-2.76.81-4.23V5.63l-8-3.67zm1.08 10.15c-.32-.06-.64-.11-.96-.12A2.997 2.997 0 0012 6a2.996 2.996 0 00-.12 5.99c-.32.01-.64.06-.96.12C8.64 12.58 7 14.62 7 17h10c0-2.38-1.64-4.42-3.92-4.89zM10 9c0-1.1.9-2 2-2s2 .9 2 2-.9 2-2 2-2-.9-2-2zm1.12 4.09c.37-.08.64-.11.88-.11s.51.03.88.11c1.48.3 2.63 1.46 3 2.91H8.12c.37-1.45 1.52-2.61 3-2.91z"></path>
    </symbol>
    <symbol id="appearance">
        <path
            d="M12 22C10.93 22 9.86998 21.83 8.83998 21.48L7.41998 21.01L8.83998 20.54C12.53 19.31 15 15.88 15 12C15 8.12 12.53 4.69 8.83998 3.47L7.41998 2.99L8.83998 2.52C9.86998 2.17 10.93 2 12 2C17.51 2 22 6.49 22 12C22 17.51 17.51 22 12 22ZM10.58 20.89C11.05 20.96 11.53 21 12 21C16.96 21 21 16.96 21 12C21 7.04 16.96 3 12 3C11.53 3 11.05 3.04 10.58 3.11C13.88 4.81 16 8.21 16 12C16 15.79 13.88 19.19 10.58 20.89Z"></path>
    </symbol>
    <symbol id="language">
        <path
            d="M12 3c4.96 0 9 4.04 9 9s-4.04 9-9 9-9-4.04-9-9 4.04-9 9-9m0-1C6.48 2 2 6.48 2 12s4.48 10 10 10 10-4.48 10-10S17.52 2 12 2zm4 7V7h-3V5h-2v2h-1c-1.1 0-2 .9-2 2v2c0 1.1.9 2 2 2h4v2H8v2h3v2h2v-2h1c1.1 0 2-.9 2-2v-2c0-1.1-.9-2-2-2h-4V9h6z"></path>
    </symbol>
    <symbol id="restricted-mode">
        <path
            d="M12 20.95Q8.975 20.075 6.987 17.312Q5 14.55 5 11.1V5.7L12 3.075L19 5.7V11.35Q18.775 11.275 18.5 11.2Q18.225 11.125 18 11.075V6.375L12 4.15L6 6.375V11.1Q6 12.575 6.438 13.938Q6.875 15.3 7.625 16.438Q8.375 17.575 9.413 18.425Q10.45 19.275 11.625 19.725L11.675 19.7Q11.8 20 11.975 20.288Q12.15 20.575 12.375 20.825Q12.275 20.85 12.188 20.888Q12.1 20.925 12 20.95ZM17 17Q17.625 17 18.062 16.562Q18.5 16.125 18.5 15.5Q18.5 14.875 18.062 14.438Q17.625 14 17 14Q16.375 14 15.938 14.438Q15.5 14.875 15.5 15.5Q15.5 16.125 15.938 16.562Q16.375 17 17 17ZM17 20Q17.8 20 18.438 19.65Q19.075 19.3 19.5 18.7Q18.925 18.35 18.3 18.175Q17.675 18 17 18Q16.325 18 15.7 18.175Q15.075 18.35 14.5 18.7Q14.925 19.3 15.562 19.65Q16.2 20 17 20ZM17 21Q15.325 21 14.163 19.837Q13 18.675 13 17Q13 15.325 14.163 14.162Q15.325 13 17 13Q18.675 13 19.837 14.162Q21 15.325 21 17Q21 18.675 19.837 19.837Q18.675 21 17 21ZM12 11.95Q12 11.95 12 11.95Q12 11.95 12 11.95Q12 11.95 12 11.95Q12 11.95 12 11.95Q12 11.95 12 11.95Q12 11.95 12 11.95Q12 11.95 12 11.95Q12 11.95 12 11.95Q12 11.95 12 11.95Q12 11.95 12 11.95Z"></path>
    </symbol>
    <symbol id="location">
        <path
            d="M11.99 1.98C6.46 1.98 1.98 6.47 1.98 12s4.48 10.02 10.01 10.02c5.54 0 10.03-4.49 10.03-10.02S17.53 1.98 11.99 1.98zM8.86 14.5c-.16-.82-.25-1.65-.25-2.5 0-.87.09-1.72.26-2.55h6.27c.17.83.26 1.68.26 2.55 0 .85-.09 1.68-.25 2.5H8.86zm6.03 1c-.54 1.89-1.52 3.64-2.89 5.15-1.37-1.5-2.35-3.25-2.89-5.15h5.78zM9.12 8.45c.54-1.87 1.52-3.61 2.88-5.1 1.36 1.49 2.34 3.22 2.88 5.1H9.12zm7.03 1h4.5c.24.81.37 1.66.37 2.55 0 .87-.13 1.71-.36 2.5h-4.51c.15-.82.24-1.65.24-2.5 0-.87-.09-1.72-.24-2.55zm4.14-1h-4.38c-.53-1.97-1.47-3.81-2.83-5.4 3.25.4 5.96 2.51 7.21 5.4zm-9.37-5.4c-1.35 1.59-2.3 3.43-2.83 5.4H3.71c1.24-2.9 3.96-5.01 7.21-5.4zm-7.57 6.4h4.5c-.15.83-.24 1.68-.24 2.55 0 .85.09 1.68.24 2.5H3.34c-.23-.79-.36-1.63-.36-2.5 0-.89.13-1.74.37-2.55zm.34 6.05h4.39c.52 1.99 1.48 3.85 2.84 5.45-3.27-.39-6-2.53-7.23-5.45zm9.4 5.45c1.36-1.6 2.32-3.46 2.84-5.45h4.39c-1.24 2.92-3.97 5.05-7.23 5.45z"></path>
    </symbol>
    <symbol id="keyboard-shortcuts">
        <path
            d="M16 16H8v-2h8v2zm0-5h-2v2h2v-2zm3 0h-2v2h2v-2zm-6 0h-2v2h2v-2zm-3 0H8v2h2v-2zm-3 0H5v2h2v-2zm9-3h-2v2h2V8zm3 0h-2v2h2V8zm-6 0h-2v2h2V8zm-3 0H8v2h2V8zM7 8H5v2h2V8zm15-3v14H2V5h20zm-1 1H3v12h18V6z"></path>
    </symbol>
    <symbol id="settings">
        <path clip-rule="evenodd"
            d="m14.302 6.457-.668-.278L12.87 3.5h-1.737l-.766 2.68-.668.277c-.482.2-.934.463-1.344.778l-.575.44-2.706-.677-.868 1.504 1.938 2.003-.093.716c-.033.255-.05.514-.05.779 0 .264.017.524.05.779l.093.716-1.938 2.003.868 1.504 2.706-.677.575.44c.41.315.862.577 1.344.778l.668.278.766 2.679h1.737l.765-2.68.668-.277c.483-.2.934-.463 1.345-.778l.574-.44 2.706.677.869-1.504-1.938-2.003.092-.716c.033-.255.05-.514.05-.779 0-.264-.017-.524-.05-.779l-.092-.716 1.938-2.003-.869-1.504-2.706.677-.574-.44c-.41-.315-.862-.577-1.345-.778Zm4.436.214Zm-3.86-1.6-.67-2.346c-.123-.429-.516-.725-.962-.725h-2.492c-.446 0-.838.296-.961.725l-.67 2.347c-.605.251-1.17.58-1.682.972l-2.37-.593c-.433-.108-.885.084-1.108.47L2.717 8.08c-.223.386-.163.874.147 1.195l1.698 1.755c-.04.318-.062.642-.062.971 0 .329.021.653.062.97l-1.698 1.756c-.31.32-.37.809-.147 1.195l1.246 2.158c.223.386.675.578 1.109.47l2.369-.593c.512.393 1.077.72 1.681.972l.67 2.347c.124.429.516.725.962.725h2.492c.446 0 .839-.296.961-.725l.67-2.347c.605-.251 1.17-.58 1.682-.972l2.37.593c.433.108.885-.084 1.109-.47l1.245-2.158c.223-.386.163-.874-.147-1.195l-1.698-1.755c.04-.318.062-.642.062-.971 0-.329-.021-.653-.062-.97l1.698-1.756c.31-.32.37-.809.147-1.195L20.038 5.92c-.224-.386-.676-.578-1.11-.47l-2.369.593c-.512-.393-1.077-.72-1.681-.972ZM15.5 12c0 1.933-1.567 3.5-3.5 3.5S8.5 13.933 8.5 12s1.567-3.5 3.5-3.5 3.5 1.567 3.5 3.5ZM14 12c0 1.105-.895 2-2 2s-2-.895-2-2 .895-2 2-2 2 .895 2 2Z"
            fill-rule="evenodd"></path>
    </symbol>
    <symbol id="help">
        <path
            d="M15.36 9.96c0 1.09-.67 1.67-1.31 2.24-.53.47-1.03.9-1.16 1.6l-.04.2H11.1l.03-.28c.14-1.17.8-1.76 1.47-2.27.52-.4 1.01-.77 1.01-1.49 0-.51-.23-.97-.63-1.29-.4-.31-.92-.42-1.42-.29-.59.15-1.05.67-1.19 1.34l-.05.28H8.57l.06-.42c.2-1.4 1.15-2.53 2.42-2.87 1.05-.29 2.14-.08 2.98.57.85.64 1.33 1.62 1.33 2.68zM12 18c.55 0 1-.45 1-1s-.45-1-1-1-1 .45-1 1 .45 1 1 1zm0-15c-4.96 0-9 4.04-9 9s4.04 9 9 9 9-4.04 9-9-4.04-9-9-9m0-1c5.52 0 10 4.48 10 10s-4.48 10-10 10S2 17.52 2 12 6.48 2 12 2z"></path>
    </symbol>
    <symbol id="send-feedback">
        <path
            d="M13 14h-2v-2h2v2zm0-9h-2v6h2V5zm6-2H5v16.59l3.29-3.29.3-.3H19V3m1-1v15H9l-5 5V2h16z"></path>
    </symbol>
    <symbol id="report">
        <path clip-rule="evenodd"
            d="M4.75 3H4v18.25c0 .414.336.75.75.75s.75-.336.75-.75V14H11l.585 1.17c.254.509.774.83 1.342.83H18.5c.828 0 1.5-.672 1.5-1.5v-8c0-.828-.672-1.5-1.5-1.5H13l-.585-1.17C12.16 3.32 11.64 3 11.073 3H4.75Zm.75 9.5h6.427l.415.83.585 1.17H18.5v-8h-6.427l-.415-.83-.585-1.17H5.5v8Z"
            fill-rule="evenodd"></path>
    </symbol>
    <symbol id="trending">
        <path clip-rule="evenodd"
            d="m14 2-1.5.886-5.195 3.07C4.637 7.533 3 10.401 3 13.5c0 4.694 3.806 8.5 8.5 8.5s8.5-3.806 8.5-8.5V1l-1.5 1-3 2L14 5V2ZM8.068 7.248l4.432-2.62v3.175l2.332-1.555L18.5 3.803V13.5c0 3.866-3.134 7-7 7s-7-3.134-7-7c0-2.568 1.357-4.946 3.568-6.252ZM9 15c0-1.226.693-2.346 1.789-2.894L15 10v5c0 1.657-1.343 3-3 3s-3-1.343-3-3Z"
            fill-rule="evenodd"></path>
    </symbol>
    <symbol id="music">
        <path clip-rule="evenodd"
            d="M19 3c0-.271-.146-.521-.383-.654-.237-.133-.527-.127-.758.014l-9 5.5c-.223.136-.359.379-.359.64v7.901C8.059 16.146 7.546 16 7 16c-1.657 0-3 1.343-3 3s1.343 3 3 3 3-1.343 3-3v-7.08l7.5-4.583v6.064c-.441-.255-.954-.401-1.5-.401-1.657 0-3 1.343-3 3s1.343 3 3 3 3-1.343 3-3V3Zm-1.5 13c0-.828-.672-1.5-1.5-1.5s-1.5.672-1.5 1.5.672 1.5 1.5 1.5 1.5-.672 1.5-1.5Zm-9 3c0-.828-.672-1.5-1.5-1.5s-1.5.672-1.5 1.5.672 1.5 1.5 1.5 1.5-.672 1.5-1.5Zm9-13.42L10 10.162V8.92l7.5-4.584V5.58Z"
            fill-rule="evenodd"></path>
    </symbol>
    <symbol id="movies">
        <path clip-rule="evenodd"
            d="m3.116 5.998 16.79-2.66.157.988-16.79 2.66-.157-.988Zm-1.481.235c-.13-.819.428-1.587 1.247-1.717l16.79-2.659c.819-.13 1.587.429 1.716 1.247l.157.988.234 1.481-1.481.235L6.463 7.999H22v11.5c0 .829-.672 1.5-1.5 1.5h-17c-.828 0-1.5-.671-1.5-1.5V8.539L1.79 7.22l-.156-.987Zm7.698 3.266h-2L9 11.999H6l-1.667-2.5H3.5v10h17v-10h-3.167L19 12h-3l-1.667-2.501h-2L14 12h-3L9.333 9.499Z"
            fill-rule="evenodd"></path>
    </symbol>
    <symbol id="gaming">
        <path clip-rule="evenodd"
            d="m12 7.75-.772-.464-4.186-2.511L2.5 7.803v6.307L12 19.29l9.5-5.181V7.803l-4.542-3.028-4.186 2.511L12 7.75ZM12 6 7.814 3.488c-.497-.298-1.122-.283-1.604.039L1.668 6.555C1.251 6.833 1 7.3 1 7.803v6.307c0 .548.3 1.054.782 1.316l9.5 5.182c.447.244.989.244 1.436 0l9.5-5.182c.482-.262.782-.768.782-1.316V7.803c0-.502-.25-.97-.668-1.248L17.79 3.527c-.482-.322-1.107-.337-1.604-.039L12 6Zm3.5 6.25c0 .69-.56 1.25-1.25 1.25S13 12.94 13 12.25 13.56 11 14.25 11s1.25.56 1.25 1.25ZM7 8c-.414 0-.75.336-.75.75v1.5h-1.5c-.414 0-.75.336-.75.75s.336.75.75.75h1.5v1.5c0 .414.336.75.75.75s.75-.336.75-.75v-1.5h1.5c.414 0 .75-.336.75-.75s-.336-.75-.75-.75h-1.5v-1.5C7.75 8.336 7.414 8 7 8Zm10.75 3c.69 0 1.25-.56 1.25-1.25s-.56-1.25-1.25-1.25-1.25.56-1.25 1.25.56 1.25 1.25 1.25Z"
            fill-rule="evenodd"></path>
    </symbol>
    <symbol id="news">
        <path clip-rule="evenodd"
            d="M2 5.121V3l.94.94.56.56.5.5.94-.94.12-.12L6 3l.94.94.12.12L8 5l.94-.94.12-.12L10 3l.94.94.12.12L12 5l.94-.94.12-.12L14 3l.94.94.12.12L16 5l.94-.94.12-.12L18 3l.94.94.12.12L20 5l.5-.5.56-.56L22 3v16c0 1.105-.895 2-2 2H4c-1.105 0-2-.895-2-2V5.121ZM10.75 19.5h-4.5v-5.25h4.5v5.25Zm1.25 0V13H5v6.5H4c-.276 0-.5-.224-.5-.5V7.65l2.514-2.514.925.925L8 7.12l1.06-1.06.94-.94.94.94L12 7.12l1.06-1.06.94-.94.94.94L16 7.12l1.06-1.06.926-.925L20.5 7.65V19c0 .276-.224.5-.5.5h-8ZM19 9v2H5V9h14Zm-5 4h5v1.5h-5V13Zm5 3h-5v1.5h5V16Z"
            fill-rule="evenodd"></path>
    </symbol>
    <symbol id="report">
        <path clip-rule="evenodd"
            d="M6.5 3.5h11V9c0 3.038-2.462 5.5-5.5 5.5S6.5 12.038 6.5 9V3.5ZM5 3.5C5 2.672 5.672 2 6.5 2h11c.828 0 1.5.672 1.5 1.5V4h2c.552 0 1 .448 1 1v3c0 2.493-1.825 4.56-4.212 4.938-1.082 1.588-2.8 2.707-4.788 2.991V17.5h1.5c.828 0 1.5.672 1.5 1.5v3H8v-3c0-.828.672-1.5 1.5-1.5H11v-1.57c-1.987-.285-3.706-1.404-4.788-2.992C3.825 12.56 2 10.493 2 8V5c0-.552.448-1 1-1h2v-.5Zm0 1.75H3.25V8c0 1.508.89 2.808 2.174 3.403C5.15 10.654 5 9.845 5 9V5.25Zm13.576 6.153C19.86 10.808 20.75 9.508 20.75 8V5.25H19V9c0 .844-.15 1.654-.424 2.403ZM9.5 20.5V19h5v1.5h-5Z"
            fill-rule="evenodd"></path>
    </symbol>
    <symbol id="sports">
        <path clip-rule="evenodd"
            d="M6.5 3.5h11V9c0 3.038-2.462 5.5-5.5 5.5S6.5 12.038 6.5 9V3.5ZM5 3.5C5 2.672 5.672 2 6.5 2h11c.828 0 1.5.672 1.5 1.5V4h2c.552 0 1 .448 1 1v3c0 2.493-1.825 4.56-4.212 4.938-1.082 1.588-2.8 2.707-4.788 2.991V17.5h1.5c.828 0 1.5.672 1.5 1.5v3H8v-3c0-.828.672-1.5 1.5-1.5H11v-1.57c-1.987-.285-3.706-1.404-4.788-2.992C3.825 12.56 2 10.493 2 8V5c0-.552.448-1 1-1h2v-.5Zm0 1.75H3.25V8c0 1.508.89 2.808 2.174 3.403C5.15 10.654 5 9.845 5 9V5.25Zm13.576 6.153C19.86 10.808 20.75 9.508 20.75 8V5.25H19V9c0 .844-.15 1.654-.424 2.403ZM9.5 20.5V19h5v1.5h-5Z"
            fill-rule="evenodd"></path>
    </symbol>
    <symbol id="fashion-and-beauty">
        <path clip-rule="evenodd"
            d="M11.58 2.03c.545-.078 1.1-.003 1.606.214.506.218.942.57 1.26 1.02.319.448.508.976.547 1.525.038.55-.075 1.099-.328 1.588-.252.489-.634.899-1.104 1.185-.254.154-.527.27-.81.343v.705l7.18 5.026c.267.187.383.527.284.84-.098.312-.388.524-.715.524H18v3c0 .552-.448 1-1 1h-2v3h-1v-1h-1v1h-1v-1h-1v1h-1v-1H9v1H8v-1H7v1H6v-7H4.5c-.327 0-.617-.212-.715-.524-.099-.313.017-.653.285-.84l7.18-5.026V7.25c0-.414.336-.75.75-.75.275 0 .545-.076.78-.219.235-.143.427-.348.553-.593.126-.244.183-.519.163-.793-.019-.275-.114-.539-.273-.763-.16-.225-.377-.4-.63-.51-.253-.109-.53-.146-.803-.107-.272.038-.53.151-.742.326-.213.174-.373.404-.464.664-.137.391-.564.597-.955.46-.391-.136-.598-.564-.461-.955.182-.52.503-.98.928-1.328.425-.35.939-.575 1.484-.652ZM15 15h1.5v2.5H15V15Zm2.12-1.5H6.88L12 9.915l5.12 3.585ZM7.5 15h6v4.5h-6V15Z"
            fill-rule="evenodd"></path>
    </symbol>
    <symbol id="podcasts">
        <path clip-rule="evenodd"
            d="M7.278 4.933C8.675 3.999 10.318 3.5 12 3.5c1.681 0 3.325.499 4.722 1.433 1.398.934 2.488 2.261 3.13 3.814.644 1.553.813 3.262.485 4.911-.328 1.65-1.138 3.164-2.327 4.352-.293.293-.293.768 0 1.061.293.293.768.293 1.061 0 1.399-1.399 2.351-3.18 2.737-5.12.386-1.94.188-3.95-.57-5.778-.756-1.827-2.038-3.389-3.682-4.488C15.91 2.586 13.978 2 12 2c-1.978 0-3.911.586-5.556 1.685-1.644 1.1-2.926 2.66-3.683 4.488-.757 1.827-.955 3.838-.569 5.778.386 1.94 1.338 3.721 2.737 5.12.293.293.768.293 1.06 0 .293-.293.293-.768 0-1.06-1.188-1.19-1.998-2.704-2.326-4.353-.328-1.649-.16-3.358.484-4.91.643-1.554 1.733-2.881 3.13-3.815ZM12 7.5c-.89 0-1.76.264-2.5.758-.74.495-1.317 1.198-1.657 2.02-.341.822-.43 1.727-.257 2.6.174.873.603 1.675 1.232 2.304.293.293.293.768 0 1.06-.293.293-.768.293-1.06 0-.84-.839-1.411-1.908-1.643-3.072-.231-1.163-.112-2.37.342-3.466S7.68 7.67 8.667 7.01C9.653 6.351 10.813 6 12 6c1.187 0 2.347.352 3.333 1.011.987.66 1.756 1.597 2.21 2.693.454 1.096.573 2.303.342 3.466-.232 1.164-.803 2.233-1.642 3.073-.293.293-.768.293-1.061 0-.293-.293-.293-.768 0-1.061.63-.63 1.058-1.431 1.231-2.304.174-.873.085-1.778-.256-2.6-.34-.822-.917-1.525-1.657-2.02-.74-.494-1.61-.758-2.5-.758Zm.875 6.299C13.541 13.474 14 12.79 14 12c0-1.105-.895-2-2-2s-2 .895-2 2c0 .79.459 1.474 1.125 1.799V21c0 .483.392.875.875.875s.875-.392.875-.875v-7.201Z"
            fill-rule="evenodd"></path>
    </symbol>
    <symbol id="add-to-queue">
        <path d="M21 16h-7v-1h7v1zm0-5H9v1h12v-1zm0-4H3v1h18V7zm-11 8-7-4v8l7-4z"></path>
    </symbol>
    <symbol id="save-to-playlist">
        <path d="M18 4v15.06l-5.42-3.87-.58-.42-.58.42L6 19.06V4h12m1-1H5v18l7-5 7 5V3z"></path>
    </symbol>
    <symbol id="share">
        <path
            d="M15 5.63 20.66 12 15 18.37V14h-1c-3.96 0-7.14 1-9.75 3.09 1.84-4.07 5.11-6.4 9.89-7.1l.86-.13V5.63M14 3v6C6.22 10.13 3.11 15.33 2 21c2.78-3.97 6.44-6 12-6v6l8-9-8-9z"></path>
    </symbol>
    <symbol id="not-interested">
        <path
            d="M12 2c5.52 0 10 4.48 10 10s-4.48 10-10 10S2 17.52 2 12 6.48 2 12 2zM3 12c0 2.31.87 4.41 2.29 6L18 5.29C16.41 3.87 14.31 3 12 3c-4.97 0-9 4.03-9 9zm15.71-6L6 18.71C7.59 20.13 9.69 21 12 21c4.97 0 9-4.03 9-9 0-2.31-.87-4.41-2.29-6z"
            fill-rule="evenodd"></path>
    </symbol>
    <symbol id="dont-recommend-channel">
        <g>
            <path
                d="M12 3c-4.96 0-9 4.04-9 9s4.04 9 9 9 9-4.04 9-9-4.04-9-9-9m0-1c5.52 0 10 4.48 10 10s-4.48 10-10 10S2 17.52 2 12 6.48 2 12 2zm7 11H5v-2h14v2z"></path>
        </g>
    </symbol>
    <symbol id="youtube-premium">
        <g>
            <path fill="#FF0033"
                d="M21.58,7.19c-0.23-0.86-0.91-1.54-1.77-1.77C18.25,5,12,5,12,5S5.75,5,4.19,5.42   C3.33,5.65,2.65,6.33,2.42,7.19C2,8.75,2,12,2,12s0,3.25,0.42,4.81c0.23,0.86,0.91,1.54,1.77,1.77C5.75,19,12,19,12,19   s6.25,0,7.81-0.42c0.86-0.23,1.54-0.91,1.77-1.77C22,15.25,22,12,22,12S22,8.75,21.58,7.19z"></path>
            <polygon fill="#FFFFFF" points="10,15 15,12 10,9  "></polygon>
        </g>
    </symbol>
    <symbol id="plus">
        <path d="M20 12h-8v8h-1v-8H3v-1h8V3h1v8h8v1z"></path>
    </symbol>
    <symbol id="verified">
        <path
            d="M12 2C6.5 2 2 6.5 2 12s4.5 10 10 10 10-4.5 10-10S17.5 2 12 2zM9.8 17.3l-4.2-4.1L7 11.8l2.8 2.7L17 7.4l1.4 1.4-8.6 8.5z"></path>
    </symbol>
    <symbol id="dislike">
        <path
            d="M17,4h-1H6.57C5.5,4,4.59,4.67,4.38,5.61l-1.34,6C2.77,12.85,3.82,14,5.23,14h4.23l-1.52,4.94C7.62,19.97,8.46,21,9.62,21 c0.58,0,1.14-0.24,1.52-0.65L17,14h4V4H17z M10.4,19.67C10.21,19.88,9.92,20,9.62,20c-0.26,0-0.5-0.11-0.63-0.3 c-0.07-0.1-0.15-0.26-0.09-0.47l1.52-4.94l0.4-1.29H9.46H5.23c-0.41,0-0.8-0.17-1.03-0.46c-0.12-0.15-0.25-0.4-0.18-0.72l1.34-6 C5.46,5.35,5.97,5,6.57,5H16v8.61L10.4,19.67z M20,13h-3V5h3V13z"></path>
    </symbol>
    <symbol id="more">
        <path
            d="M7.5 12c0 .83-.67 1.5-1.5 1.5s-1.5-.67-1.5-1.5.67-1.5 1.5-1.5 1.5.67 1.5 1.5zm4.5-1.5c-.83 0-1.5.67-1.5 1.5s.67 1.5 1.5 1.5 1.5-.67 1.5-1.5-.67-1.5-1.5-1.5zm6 0c-.83 0-1.5.67-1.5 1.5s.67 1.5 1.5 1.5 1.5-.67 1.5-1.5-.67-1.5-1.5-1.5z"></path>
    </symbol>
    <symbol id="thanks">
        <path
            d="M11 17h2v-1h1c.55 0 1-.45 1-1v-3c0-.55-.45-1-1-1h-3v-1h4V8h-2V7h-2v1h-1c-.55 0-1 .45-1 1v3c0 .55.45 1 1 1h3v1H9v2h2v1zm5.5-15c-1.74 0-3.41.88-4.5 2.28C10.91 2.88 9.24 2 7.5 2 4.42 2 2 4.64 2 7.99c0 4.12 3.4 7.48 8.55 12.58L12 22l1.45-1.44C18.6 15.47 22 12.11 22 7.99 22 4.64 19.58 2 16.5 2zm-3.75 17.85-.75.74-.74-.73-.04-.04C6.27 14.92 3 11.69 3 7.99 3 5.19 4.98 3 7.5 3c1.4 0 2.79.71 3.71 1.89L12 5.9l.79-1.01C13.71 3.71 15.1 3 16.5 3 19.02 3 21 5.19 21 7.99c0 3.7-3.28 6.94-8.25 11.86z"></path>
    </symbol>
    <symbol id="downloads-light">
        <path d="M17 18v1H6v-1h11zm-.5-6.6-.7-.7-3.8 3.7V4h-1v10.4l-3.8-3.8-.7.7 5 5 5-4.9z"></path>
    </symbol>
    <symbol id="your-clips-light">
        <path
            d="M8 7c0 .55-.45 1-1 1s-1-.45-1-1 .45-1 1-1 1 .45 1 1zm-1 9c-.55 0-1 .45-1 1s.45 1 1 1 1-.45 1-1-.45-1-1-1zm3.79-7.77L21 18.44V20h-3.27l-5.76-5.76-1.27 1.27c.19.46.3.96.3 1.49 0 2.21-1.79 4-4 4s-4-1.79-4-4 1.79-4 4-4c.42 0 .81.08 1.19.2l1.37-1.37-1.11-1.11C8 10.89 7.51 11 7 11c-2.21 0-4-1.79-4-4s1.79-4 4-4 4 1.79 4 4c0 .43-.09.84-.21 1.23zm-.71.71-.43-.44.19-.58c.11-.34.16-.64.16-.92 0-1.65-1.35-3-3-3S4 5.35 4 7s1.35 3 3 3c.36 0 .73-.07 1.09-.21l.61-.24.46.46 1.11 1.11.71.71-.71.71-1.37 1.37-.43.43-.58-.18C7.55 14.05 7.27 14 7 14c-1.65 0-3 1.35-3 3s1.35 3 3 3 3-1.35 3-3c0-.38-.07-.75-.22-1.12l-.25-.61.47-.47 1.27-1.27.71-.71.71.71L18.15 19H20v-.15l-9.92-9.91zM17.73 4H21v1.56l-5.52 5.52-2.41-2.41L17.73 4zm.42 1-3.67 3.67 1 1L20 5.15V5h-1.85z"></path>
    </symbol>
    <symbol id="report-light">
        <path
            d="m13.18 4 .24 1.2.16.8H19v7h-5.18l-.24-1.2-.16-.8H6V4h7.18M14 3H5v18h1v-9h6.6l.4 2h7V5h-5.6L14 3z"></path>
    </symbol>
    <symbol id="sort-by">
        <path d="M21 6H3V5h18v1zm-6 5H3v1h12v-1zm-6 6H3v1h6v-1z"></path>
    </symbol>
    <symbol id="chevron-down">
        <path d="m18 9.28-6.35 6.35-6.37-6.35.72-.71 5.64 5.65 5.65-5.65z"></path>
    </symbol>
    <symbol id="enter">
        <path d="M19 15l-6 6-1.42-1.42L15.17 16H4V4h2v10h9.17l-3.59-3.58L13 9l6 6z"></path>
    </symbol>
    <symbol id="emotion">
        <path
            d="M15.83 15c-.52 1.38-2.19 2-3.79 2-1.59 0-3.28-.62-3.85-2h7.64m.69-1H7.49c-.27 0-.49.22-.46.47C7.34 16.83 9.7 18 12.05 18c2.35 0 4.69-1.18 4.93-3.54.03-.25-.2-.46-.46-.46zM12 3c4.96 0 9 4.04 9 9s-4.04 9-9 9-9-4.04-9-9 4.04-9 9-9m0-1C6.48 2 2 6.48 2 12s4.48 10 10 10 10-4.48 10-10S17.52 2 12 2zM6.94 9.73C7.19 9.25 7.72 9 8.5 9c.75 0 1.28.25 1.57.75.14.24.45.32.68.18.24-.14.32-.44.18-.68C10.6 8.68 9.91 8 8.5 8c-1.48 0-2.15.69-2.44 1.27-.13.25-.03.55.21.67.07.04.15.06.23.06.18 0 .36-.1.44-.27zm7 0c.25-.48.78-.73 1.56-.73.75 0 1.28.25 1.57.75.14.24.45.32.68.18.24-.14.32-.44.18-.68C17.6 8.68 16.91 8 15.5 8c-1.48 0-2.15.69-2.44 1.27-.13.25-.03.55.21.67.07.04.15.06.23.06.18 0 .36-.1.44-.27z"></path>
    </symbol>
    <symbol id="volume">
        <path
            d="M8,21 L12,21 L17,26 L17,10 L12,15 L8,15 L8,21 Z M19,14 L19,22 C20.48,21.32 21.5,19.77 21.5,18 C21.5,16.26 20.48,14.74 19,14 ZM19,11.29 C21.89,12.15 24,14.83 24,18 C24,21.17 21.89,23.85 19,24.71 L19,26.77 C23.01,25.86 26,22.28 26,18 C26,13.72 23.01,10.14 19,9.23 L19,11.29 Z"></path>
    </symbol>
    <symbol id="volume-muted">
        <path
            d="m 21.48,17.98 c 0,-1.77 -1.02,-3.29 -2.5,-4.03 v 2.21 l 2.45,2.45 c .03,-0.2 .05,-0.41 .05,-0.63 z m 2.5,0 c 0,.94 -0.2,1.82 -0.54,2.64 l 1.51,1.51 c .66,-1.24 1.03,-2.65 1.03,-4.15 0,-4.28 -2.99,-7.86 -7,-8.76 v 2.05 c 2.89,.86 5,3.54 5,6.71 z M 9.25,8.98 l -1.27,1.26 4.72,4.73 H 7.98 v 6 H 11.98 l 5,5 v -6.73 l 4.25,4.25 c -0.67,.52 -1.42,.93 -2.25,1.18 v 2.06 c 1.38,-0.31 2.63,-0.95 3.69,-1.81 l 2.04,2.05 1.27,-1.27 -9,-9 -7.72,-7.72 z m 7.72,.99 -2.09,2.08 2.09,2.09 V 9.98 z"></path>
    </symbol>
    <symbol id="play">
        <path d="M 12,26 18.5,22 18.5,14 12,10 z M 18.5,22 25,18 25,18 18.5,14 z"></path>
    </symbol>
    <symbol id="pause">
        <path d="M 12,26 16,26 16,10 12,10 z M 21,26 25,26 25,10 21,10 z"></path>
    </symbol>
    <symbol id="replay">
        <path
            d="M 18,11 V 7 l -5,5 5,5 v -4 c 3.3,0 6,2.7 6,6 0,3.3 -2.7,6 -6,6 -3.3,0 -6,-2.7 -6,-6 h -2 c 0,4.4 3.6,8 8,8 4.4,0 8,-3.6 8,-8 0,-4.4 -3.6,-8 -8,-8 z"></path>
    </symbol>
    <symbol id="next">
        <path d="M 12,24 20.5,18 12,12 V 24 z M 22,12 v 12 h 2 V 12 h -2 z"></path>
    </symbol>
    <symbol id="subtitle">
        <path
            d="M11,11 C9.89,11 9,11.9 9,13 L9,23 C9,24.1 9.89,25 11,25 L25,25 C26.1,25 27,24.1 27,23 L27,13 C27,11.9 26.1,11 25,11 L11,11 Z M17,17 L15.5,17 L15.5,16.5 L13.5,16.5 L13.5,19.5 L15.5,19.5 L15.5,19 L17,19 L17,20 C17,20.55 16.55,21 16,21 L13,21 C12.45,21 12,20.55 12,20 L12,16 C12,15.45 12.45,15 13,15 L16,15 C16.55,15 17,15.45 17,16 L17,17 L17,17 Z M24,17 L22.5,17 L22.5,16.5 L20.5,16.5 L20.5,19.5 L22.5,19.5 L22.5,19 L24,19 L24,20 C24,20.55 23.55,21 23,21 L20,21 C19.45,21 19,20.55 19,20 L19,16 C19,15.45 19.45,15 20,15 L23,15 C23.55,15 24,15.45 24,16 L24,17 L24,17 Z"></path>
    </symbol>
    <symbol id="player-settings">
        <path
            d="m 23.94,18.78 c .03,-0.25 .05,-0.51 .05,-0.78 0,-0.27 -0.02,-0.52 -0.05,-0.78 l 1.68,-1.32 c .15,-0.12 .19,-0.33 .09,-0.51 l -1.6,-2.76 c -0.09,-0.17 -0.31,-0.24 -0.48,-0.17 l -1.99,.8 c -0.41,-0.32 -0.86,-0.58 -1.35,-0.78 l -0.30,-2.12 c -0.02,-0.19 -0.19,-0.33 -0.39,-0.33 l -3.2,0 c -0.2,0 -0.36,.14 -0.39,.33 l -0.30,2.12 c -0.48,.2 -0.93,.47 -1.35,.78 l -1.99,-0.8 c -0.18,-0.07 -0.39,0 -0.48,.17 l -1.6,2.76 c -0.10,.17 -0.05,.39 .09,.51 l 1.68,1.32 c -0.03,.25 -0.05,.52 -0.05,.78 0,.26 .02,.52 .05,.78 l -1.68,1.32 c -0.15,.12 -0.19,.33 -0.09,.51 l 1.6,2.76 c .09,.17 .31,.24 .48,.17 l 1.99,-0.8 c .41,.32 .86,.58 1.35,.78 l .30,2.12 c .02,.19 .19,.33 .39,.33 l 3.2,0 c .2,0 .36,-0.14 .39,-0.33 l .30,-2.12 c .48,-0.2 .93,-0.47 1.35,-0.78 l 1.99,.8 c .18,.07 .39,0 .48,-0.17 l 1.6,-2.76 c .09,-0.17 .05,-0.39 -0.09,-0.51 l -1.68,-1.32 0,0 z m -5.94,2.01 c -1.54,0 -2.8,-1.25 -2.8,-2.8 0,-1.54 1.25,-2.8 2.8,-2.8 1.54,0 2.8,1.25 2.8,2.8 0,1.54 -1.25,2.8 -2.8,2.8 l 0,0 z"></path>
    </symbol>
    <symbol id="player-mini">
        <path
            d="M25,17 L17,17 L17,23 L25,23 L25,17 L25,17 Z M29,25 L29,10.98 C29,9.88 28.1,9 27,9 L9,9 C7.9,9 7,9.88 7,10.98 L7,25 C7,26.1 7.9,27 9,27 L27,27 C28.1,27 29,26.1 29,25 L29,25 Z M27,25.02 L9,25.02 L9,10.97 L27,10.97 L27,25.02 L27,25.02 z"></path>
    </symbol>
    <symbol id="player-default-view-mode">
        <path fill="#FFFFFF" fill-rule="evenodd"
            d="m 26,13 0,10 -16,0 0,-10 z m -14,2 12,0 0,6 -12,0 0,-6 z"></path>
    </symbol>
    <symbol id="player-theater-view-mode">
        <path fill="#FFFFFF" fill-rule="evenodd"
            d="m 28,11 0,14 -20,0 0,-14 z m -18,2 16,0 0,10 -16,0 0,-10 z"></path>
    </symbol>
    <symbol id="player-fullscreen">
        <g>
            <path
                d="m 10,16 2,0 0,-4 4,0 0,-2 L 10,10 l 0,6 0,0 z"
                fill="#FFFFFF"
            >
            </path>
        </g>
        <g>
            <path
                d="m 20,10 0,2 4,0 0,4 2,0 L 26,10 l -6,0 0,0 z"
                fill="#FFFFFF"
            ></path>
        </g>
        <g>
            <path
                d="m 24,24 -4,0 0,2 L 26,26 l 0,-6 -2,0 0,4 0,0 z"
                fill="#FFFFFF"
            ></path>
        </g>
        <g>
            <path
                d="M 12,20 10,20 10,26 l 6,0 0,-2 -4,0 0,-4 0,0 z"
                fill="#FFFFFF"
            ></path>
        </g>
    </symbol>
    <symbol id="player-inline">
        <g>
            <path
                d="m 14,14 -4,0 0,2 6,0 0,-6 -2,0 0,4 0,0 z"
                fill="#FFFFFF"
            ></path>
        </g>
        <g>
            <path
                d="m 22,14 0,-4 -2,0 0,6 6,0 0,-2 -4,0 0,0 z"
                fill="#FFFFFF"
            ></path>
        </g>
        <g>
            <path
                d="m 20,26 2,0 0,-4 4,0 0,-2 -6,0 0,6 0,0 z"
                fill="#FFFFFF"
            ></path>
        </g>
        <g>
            <path
                d="m 10,22 4,0 0,4 2,0 0,-6 -6,0 0,2 0,0 z"
                fill="#FFFFFF"
            ></path>
        </g>
    </symbol>
    <symbol id="player-playbutton-placeholder">
        <path
            d="M66.52,7.74c-0.78-2.93-2.49-5.41-5.42-6.19C55.79,.13,34,0,34,0S12.21,.13,6.9,1.55 C3.97,2.33,2.27,4.81,1.48,7.74C0.06,13.05,0,24,0,24s0.06,10.95,1.48,16.26c0.78,2.93,2.49,5.41,5.42,6.19 C12.21,47.87,34,48,34,48s21.79-0.13,27.1-1.55c2.93-0.78,4.64-3.26,5.42-6.19C67.94,34.95,68,24,68,24S67.94,13.05,66.52,7.74z"
            fill="#f00"
        ></path>
        <path d="M 45,24 27,14 27,34" fill="#fff"></path>
    </symbol>
    <symbol id="hamburger">
        <path d="M21 6H3V5h18v1zm0 5H3v1h18v-1zm0 6H3v1h18v-1z"></path>
    </symbol>
</svg>